<?xml version="1.0" encoding="UTF-8" standalone="no"?>
<svg viewBox="0 0 187.5 187.5" xmlns="http://www.w3.org/2000/svg">
<g transform="translate(-138.6085,-857.2255)">
<path d="m180.9174,931.92596h102.88223a9.46806,14.97016 0 0,1 9.46806,14.97016v28.51458a9.46806,14.97016 0 0,1 -9.46806,14.97016h-102.88223a9.46806,14.97016 0 0,1 -9.46806-14.97016v-28.51458a9.46806,14.97016 0 0,1 9.46806-14.97016" fill="#fff" stroke="#000" stroke-linecap="round" stroke-linejoin="round" stroke-width="3.85205"/>
<path d="m184.06036,947.35725h94.07754" fill="none" stroke="#000" stroke-dasharray="4.9175124 4.9175124" stroke-width="4.91751"/>
<path d="m184.06036,957.05477h94.07754" fill="none" stroke="#000" stroke-dasharray="4.9175124 4.9175124" stroke-width="4.91751"/>
<path d="m184.06036,966.75229h94.07754" fill="none" stroke="#000" stroke-dasharray="4.9175124 4.9175124" stroke-width="4.91751"/>
<path d="m184.06036,977.22563h94.07754" fill="none" stroke="#000" stroke-width="4.91751"/>
<path d="m278.6707,929.84353c0,0 8.86152-13.98365-.30661-21.47326-10.76314-8.79261-20.81884,8.65477-36.5493-3.06743" fill="none" stroke="#000" stroke-linecap="round" stroke-width="4.39856"/>
</g>
</svg>
